<svg xmlns="http://www.w3.org/2000/svg" width="87.015" height="87.015" viewBox="0 0 87.015 87.015">
  <g id="_Marine_Procurement_Services" data-name="_Marine Procurement Services" transform="translate(0)">
    <g id="Group_69263" data-name="Group 69263" transform="translate(0 0)">
      <ellipse id="Ellipse_585" data-name="Ellipse 585" cx="1" cy="1.5" rx="1" ry="1.5" transform="translate(42.508 15.508)" fill="#aa0c0c"/>
      <path id="Path_1974" data-name="Path 1974" d="M23.667,17.061a1.451,1.451,0,1,0-2.027-.317,1.451,1.451,0,0,0,2.027.317Zm-9.888,10.5a1.45,1.45,0,1,0,.931,1.827,1.45,1.45,0,0,0-.931-1.827Zm-.9,16.133a1.45,1.45,0,1,0,1.827.931,1.45,1.45,0,0,0-1.827-.931Zm8.758,13.579a1.45,1.45,0,1,0,2.025-.324A1.45,1.45,0,0,0,21.641,57.272Z" transform="translate(5.349 6.501)" fill="#aa0c0c"/>
      <ellipse id="Ellipse_586" data-name="Ellipse 586" cx="1" cy="1.5" rx="1" ry="1.5" transform="translate(42.508 68.508)" fill="#aa0c0c"/>
      <path id="Path_1975" data-name="Path 1975" d="M45.842,56.952a1.45,1.45,0,1,0,2.027.315A1.45,1.45,0,0,0,45.842,56.952Zm9.888-10.5a1.45,1.45,0,1,0-.931-1.827,1.45,1.45,0,0,0,.931,1.827Zm.9-16.133a1.45,1.45,0,1,0-1.827-.931,1.45,1.45,0,0,0,1.827.931Zm-8.758-13.58a1.45,1.45,0,1,0-2.025.326A1.45,1.45,0,0,0,47.868,16.739ZM31.351,32.656A4.351,4.351,0,1,0,35.7,37.007,4.351,4.351,0,0,0,31.351,32.656Zm0,5.8a1.45,1.45,0,1,1,1.45-1.45A1.45,1.45,0,0,1,31.351,38.457Z" transform="translate(12.157 6.501)" fill="#aa0c0c"/>
      <path id="Path_1976" data-name="Path 1976" d="M36.754,15A21.754,21.754,0,1,0,58.508,36.754,21.754,21.754,0,0,0,36.754,15ZM55.607,36.754c0,.49-.036.97-.074,1.45H46.79a9.122,9.122,0,0,0,0-2.9h8.744c.038.48.074.96.074,1.45ZM36.754,44.005a7.251,7.251,0,1,1,7.251-7.251A7.251,7.251,0,0,1,36.754,44.005ZM17.9,36.754c0-.49.036-.97.074-1.45h8.744a9.122,9.122,0,0,0,0,2.9H17.974q-.066-.723-.074-1.45Zm.526-4.351a18.739,18.739,0,0,1,2.3-5.531L26.25,32.4Zm7.823,8.7-5.521,5.531a18.739,18.739,0,0,1-2.3-5.531Zm28.831,0a18.739,18.739,0,0,1-2.3,5.531L47.258,41.1Zm-7.823-8.7,5.521-5.531a18.738,18.738,0,0,1,2.3,5.531ZM51.05,24.5l-6.175,6.188a10.221,10.221,0,0,0-2.054-2.054l6.188-6.177A18.838,18.838,0,0,1,51.05,24.5ZM41.1,26.251V18.427a18.723,18.723,0,0,1,5.531,2.3Zm-2.9-8.277v8.744a9.122,9.122,0,0,0-2.9,0V17.974c.48-.038.96-.074,1.45-.074S37.724,17.937,38.2,17.974Zm-5.8,8.277-5.531-5.523a18.723,18.723,0,0,1,5.531-2.3ZM24.5,22.457l6.188,6.175a10.221,10.221,0,0,0-2.054,2.054L22.454,24.5A18.824,18.824,0,0,1,24.5,22.457ZM22.457,49.01l6.178-6.188a10.221,10.221,0,0,0,2.051,2.054L24.5,51.052A18.825,18.825,0,0,1,22.457,49.01ZM32.4,47.257v7.831a18.723,18.723,0,0,1-5.531-2.3Zm2.9,8.277V46.79a9.122,9.122,0,0,0,2.9,0v8.744c-.48.038-.96.074-1.45.074s-.97-.036-1.45-.074Zm5.8-8.277,5.531,5.523a18.723,18.723,0,0,1-5.531,2.3ZM49.01,51.05l-6.188-6.175a10.221,10.221,0,0,0,2.054-2.054l6.178,6.188A18.824,18.824,0,0,1,49.01,51.05Z" transform="translate(6.754 6.754)" fill="#aa0c0c"/>
      <path id="Path_1977" data-name="Path 1977" d="M82.665,39.157H76.573a33.192,33.192,0,0,0-6.616-15.943L74.275,18.9a4.37,4.37,0,0,0,0-6.152,4.464,4.464,0,0,0-6.152,0L63.8,17.061a33.192,33.192,0,0,0-15.946-6.619V4.351a4.238,4.238,0,0,0-1.268-3.057A4.27,4.27,0,0,0,43.508,0a4.351,4.351,0,0,0-4.351,4.351v6.091a33.192,33.192,0,0,0-15.943,6.616L18.9,12.745a4.242,4.242,0,0,0-3-1.268h-.113a4.274,4.274,0,0,0-3.038,1.266,4.351,4.351,0,0,0,0,6.152l4.317,4.319a33.192,33.192,0,0,0-6.619,15.943H4.351A4.241,4.241,0,0,0,1.3,40.424,4.256,4.256,0,0,0,0,43.508a4.351,4.351,0,0,0,4.351,4.351h6.091A33.192,33.192,0,0,0,17.058,63.8L12.743,68.12A4.35,4.35,0,1,0,18.9,74.272l4.319-4.317a33.192,33.192,0,0,0,15.943,6.619v6.091a4.351,4.351,0,0,0,8.7,0V76.573A33.192,33.192,0,0,0,63.8,69.957l4.317,4.316a4.242,4.242,0,0,0,3,1.268h.113a4.274,4.274,0,0,0,3.038-1.266,4.351,4.351,0,0,0,0-6.152L69.955,63.8a33.192,33.192,0,0,0,6.619-15.946h6.091a4.351,4.351,0,0,0,0-8.7ZM70.171,14.793a1.492,1.492,0,0,1,2.051,0,1.418,1.418,0,0,1,.416,1.044,1.391,1.391,0,0,1-.416,1.006l-4.138,4.138q-.981-1.066-2.051-2.051ZM42.057,4.351a1.45,1.45,0,0,1,1.45-1.45,1.42,1.42,0,0,1,1.034.444,1.4,1.4,0,0,1,.416,1.006v5.837c-.481-.02-.964-.036-1.45-.036s-.969.016-1.45.036ZM14.793,16.845a1.45,1.45,0,0,1,0-2.051,1.41,1.41,0,0,1,1.022-.416h.041a1.389,1.389,0,0,1,.986.416l4.138,4.138q-1.066.981-2.051,2.051ZM4.351,44.958a1.45,1.45,0,0,1-1.45-1.45,1.417,1.417,0,0,1,.444-1.033,1.388,1.388,0,0,1,1.006-.418h5.837c-.02.481-.036.964-.036,1.45s.016.969.036,1.45ZM16.845,72.223a1.492,1.492,0,0,1-2.051,0,1.415,1.415,0,0,1-.416-1.044,1.391,1.391,0,0,1,.416-1.006l4.138-4.138q.981,1.068,2.051,2.051ZM44.958,82.665a1.45,1.45,0,0,1-1.45,1.45,1.418,1.418,0,0,1-1.034-.444,1.4,1.4,0,0,1-.416-1.006V76.827c.481.02.964.036,1.45.036s.969-.016,1.45-.036ZM72.223,70.171a1.45,1.45,0,0,1,0,2.051,1.472,1.472,0,0,1-1.044.416,1.553,1.553,0,0,1-1.005-.416l-4.138-4.138q1.068-.981,2.051-2.051ZM43.508,73.963A30.455,30.455,0,1,1,73.963,43.508,30.455,30.455,0,0,1,43.508,73.963ZM83.671,44.54a1.388,1.388,0,0,1-1.006.418H76.827c.02-.481.036-.964.036-1.45s-.016-.969-.036-1.45h5.837a1.45,1.45,0,0,1,1.45,1.45A1.417,1.417,0,0,1,83.671,44.54Z" transform="translate(0 0)" fill="#aa0c0c"/>
    </g>
  </g>
</svg>
