<svg id="Layer_1-2" xmlns="http://www.w3.org/2000/svg" xmlns:xlink="http://www.w3.org/1999/xlink" width="1920" height="1148.65" viewBox="0 0 1920 1148.65">
  <defs>
    <linearGradient id="linear-gradient" y1="0.5" x2="1" y2="0.5" gradientUnits="objectBoundingBox">
      <stop offset="0" stop-color="#006050"/>
      <stop offset="1" stop-color="#003a33"/>
    </linearGradient>
    <clipPath id="clip-path">
      <rect id="Rectangle_4" data-name="Rectangle 4" width="1920" height="1148.65" fill="url(#linear-gradient)"/>
    </clipPath>
    <clipPath id="clip-path-2">
      <rect id="Rectangle_3" data-name="Rectangle 3" width="1920" height="1278.183" fill="none"/>
    </clipPath>
  </defs>
  <rect id="Rectangle_2" data-name="Rectangle 2" width="1920" height="1148.65" fill="url(#linear-gradient)"/>
  <g id="Mask_Group_1" data-name="Mask Group 1" clip-path="url(#clip-path)">
    <g id="Group_2" data-name="Group 2" transform="translate(0 -113.575)" clip-path="url(#clip-path-2)">
      <g id="Group_1" data-name="Group 1" transform="translate(-345.34 16.241)" opacity="0.49">
        <path id="Path_4" data-name="Path 4" d="M-44.372,29.125V-126.651c6.014-.874,11.768-2.444,17.522-2.454,108.9-.1,217.83-1.669,326.69.338,296.347,5.454,519.9,187.922,586.72,478.1C925.743,519.459,913.353,686.112,840.229,845,732.5,1079.073,549.3,1204.57,290.146,1208.613c-204.678,3.2-409.457.7-614.185.616-6.716,0-13.442-1.182-21.3-1.917V-129.4H-188.1v1179.7h31.575c141.137,0,282.314-2.334,423.39.5,242.94,4.868,407.151-148.713,462.5-364.43,31.355-122.179,27.135-243.573-15.8-362.662C648.722,143.843,492.088,31.847,300.892,29.463c-104.529-1.3-209.089-.308-313.628-.338H-44.372Z" transform="translate(345.34 129.782)" fill="#fff" opacity="0.08"/>
        <path id="Path_5" data-name="Path 5" d="M112.12,908.1c35.05,0,70.11.426,105.16.449,27.16.024,54.45,2.566,81.52-1.242,45.48-6.4,85.99-37.557,109.36-84.976a321.928,321.928,0,0,0,19.42-50.718c2.34-7.947,4.65-16.082,3.97-24.644-1.16-14.628-15.56-14.285-24.69-14.58q-66.75-2.235-133.55-.8-15.915.337-31.83.769c-19.79.544-25.68-8.006-24.99-30.71,1.23-40.442.87-80.979.21-121.456-.31-18.814,3.51-28.428,21.59-28.321,117.3.7,234.6.047,351.9,1.159,7.12.071,20.07,11.092,20.35,17.62,4.36,101.365-2.51,200.614-38.57,295-46.85,122.651-125.98,199.1-236.62,211.233-119.84,13.138-240.93,10.205-361.5,12.949-5.56.13-11.81-12.345-16.73-19.878-1.7-2.6-.34-8.053-.34-12.215q0-440.73-.01-881.46V147.926c5.7-2,9.73-4.683,13.73-4.635,116.36,1.4,233.14-3.7,348.96,6.539C440.05,160.5,528.35,238.082,579.15,371.718c3.84,10.1,6.07,21.072,10.27,36.008-55.07,0-106.88.52-158.67-.686-6.17-.142-13.24-8.609-18.11-15.124-33.13-44.2-73.81-67.179-123.87-66.611-53,.591-106.01.721-159-.154-15.83-.26-21.88,6.835-21.85,25.152q.54,266.3.8,532.582c.01,7.1,1.86,14.178,3.4,25.211Z" transform="translate(346.856 52.621)" fill="none" stroke="#fff" stroke-width="3" opacity="0.15"/>
      </g>
    </g>
  </g>
</svg>
