<svg xmlns="http://www.w3.org/2000/svg" width="64.324" height="76.132" viewBox="0 0 64.324 76.132">
  <g id="Boat_Services" data-name="Boat Services" transform="translate(-49 -11.229)">
    <path id="Path_1959" data-name="Path 1959" d="M90.111,11.229c-1.854,0-5.4,1.486-5.4,3.816V18.3H74.5a2.368,2.368,0,0,0-2.364,2.366v5.473H69.366A2.368,2.368,0,0,0,67,28.51V40.665L64.347,41.7a3.943,3.943,0,0,0-2.07,1.857A23.3,23.3,0,0,0,59.658,52.5C58.8,63.524,66.836,74.088,71.429,79.16a4.225,4.225,0,0,0-1.7,1.012,2.273,2.273,0,0,1-3.4,0A3.787,3.787,0,0,0,63.61,79.03a.777.777,0,1,0,0,1.554,2.289,2.289,0,0,1,1.7.765,3.8,3.8,0,0,0,5.432,0,2.267,2.267,0,0,1,3.395,0,3.8,3.8,0,0,0,5.438,0,2.272,2.272,0,0,1,3.4,0,3.8,3.8,0,0,0,5.432,0,2.273,2.273,0,0,1,3.4,0,3.8,3.8,0,0,0,5.432,0,2.273,2.273,0,0,1,3.4,0,3.8,3.8,0,0,0,5.433,0,2.274,2.274,0,0,1,3.4,0,3.8,3.8,0,0,0,5.433,0,2.291,2.291,0,0,1,1.7-.765.777.777,0,0,0,0-1.554,3.787,3.787,0,0,0-2.717,1.143,2.274,2.274,0,0,1-3.4,0,4.1,4.1,0,0,0-1.851-1.049A55.008,55.008,0,0,0,116.9,67.611c2.807-5.38,4.04-10.562,3.665-15.4a23.437,23.437,0,0,0-2.419-8.6,3.925,3.925,0,0,0-2.1-1.917l-2.825-1.1V28.51a2.368,2.368,0,0,0-2.364-2.366h-2.767V20.67a2.368,2.368,0,0,0-2.364-2.366H95.508V15.045c0-2.33-3.544-3.816-5.4-3.816Zm-3.844,3.816c0-1.027,2.361-2.262,3.844-2.262s3.844,1.235,3.844,2.262V18.3H86.267ZM73.687,20.67a.812.812,0,0,1,.81-.813h6.824v6.286H73.687V20.671ZM89.334,79.1a4.039,4.039,0,0,0-1.943,1.069,2.272,2.272,0,0,1-3.4,0,3.8,3.8,0,0,0-5.431,0,2.278,2.278,0,0,1-3.408,0,4.37,4.37,0,0,0-1.567-.972C69.64,75.057,61.155,64.9,61.148,54.17L89.335,43.5V79.1Zm0-37.267L61.219,52.482a21.793,21.793,0,0,1,2.437-8.209,2.39,2.39,0,0,1,1.255-1.125l24.423-9.52v8.209Zm17,37.474a4.825,4.825,0,0,0-1.271.862,2.273,2.273,0,0,1-3.4,0,3.8,3.8,0,0,0-5.432,0,2.273,2.273,0,0,1-3.4,0,4.044,4.044,0,0,0-1.936-1.067V43.5l28.185,10.785c-.169,10.42-7.882,20.006-12.744,25.024Zm9.151-36.174a2.374,2.374,0,0,1,1.272,1.158,21.893,21.893,0,0,1,2.262,8.032c.007.094.012.188.018.282L90.888,41.838V33.56l24.593,9.577ZM110.856,27.7a.812.812,0,0,1,.81.813V39.982l-20.022-7.8a3.939,3.939,0,0,0-2.867,0L68.556,40.06V28.51a.812.812,0,0,1,.81-.813Zm-12.11-7.839h6.979a.812.812,0,0,1,.81.813v5.473H98.746V19.858Zm-1.554,0v6.286H82.875V19.858Z" transform="translate(-8.948)" fill="#aa0c0c"/>
    <path id="Path_1960" data-name="Path 1960" d="M66.289,136.364a2.644,2.644,0,1,0-2.641-2.644A2.645,2.645,0,0,0,66.289,136.364Zm0-3.734a1.09,1.09,0,1,1-1.087,1.09A1.09,1.09,0,0,1,66.289,132.631Zm30.154,3.734a2.644,2.644,0,1,0-2.641-2.644A2.645,2.645,0,0,0,96.443,136.364Zm0-3.734a1.09,1.09,0,1,1-1.087,1.09A1.09,1.09,0,0,1,96.443,132.631Zm16.1,52.5a4.7,4.7,0,0,0-3.074,1.1,3.3,3.3,0,0,1-4.317,0,4.833,4.833,0,0,0-6.147,0,3.3,3.3,0,0,1-4.316,0,4.833,4.833,0,0,0-6.147,0,3.3,3.3,0,0,1-4.315,0,4.832,4.832,0,0,0-6.146,0,3.295,3.295,0,0,1-4.315,0,4.832,4.832,0,0,0-6.146,0,3.3,3.3,0,0,1-4.315,0,4.832,4.832,0,0,0-6.146,0,3.3,3.3,0,0,1-4.315,0,4.7,4.7,0,0,0-3.073-1.1.777.777,0,0,0,0,1.554,3.166,3.166,0,0,1,2.157.8,4.832,4.832,0,0,0,6.146,0,3.3,3.3,0,0,1,4.315,0,4.833,4.833,0,0,0,6.146,0,3.3,3.3,0,0,1,4.315,0,4.832,4.832,0,0,0,6.146,0,3.3,3.3,0,0,1,4.315,0,4.833,4.833,0,0,0,6.146,0,3.3,3.3,0,0,1,4.316,0,4.833,4.833,0,0,0,6.147,0,3.3,3.3,0,0,1,4.316,0,4.834,4.834,0,0,0,6.147,0,3.167,3.167,0,0,1,2.158-.8.777.777,0,1,0,0-1.554Z" transform="translate(0 -101.227)" fill="#aa0c0c"/>
  </g>
</svg>
