<svg xmlns="http://www.w3.org/2000/svg" width="87.903" height="101.502" viewBox="0 0 87.903 101.502">
  <g id="Naval_Media_Hull_Cleaning" data-name="Naval Media Hull Cleaning" transform="translate(-4.277)">
    <path id="Path_1968" data-name="Path 1968" d="M44.4,19.744a5.359,5.359,0,1,0-5.359-5.359A5.365,5.365,0,0,0,44.4,19.744Zm0-7.548a2.189,2.189,0,1,1-2.189,2.189A2.192,2.192,0,0,1,44.4,12.2Zm18.338,2.3a7.246,7.246,0,1,0-7.245-7.247,7.254,7.254,0,0,0,7.245,7.247Zm0-11.321a4.076,4.076,0,1,1-4.075,4.075A4.08,4.08,0,0,1,62.734,3.17ZM75.168,15.731a7.245,7.245,0,1,0,7.245,7.245,7.254,7.254,0,0,0-7.245-7.245Zm0,11.32a4.075,4.075,0,1,1,4.075-4.075A4.08,4.08,0,0,1,75.168,27.051ZM26.338,47.294A5.365,5.365,0,1,0,31.7,52.659a5.371,5.371,0,0,0-5.365-5.365Zm0,7.562a2.2,2.2,0,1,1,2.2-2.2A2.2,2.2,0,0,1,26.338,54.856Zm17.013-7.562a7.256,7.256,0,1,0,7.256,7.256A7.265,7.265,0,0,0,43.351,47.294Zm0,11.342a4.086,4.086,0,1,1,4.086-4.086A4.092,4.092,0,0,1,43.351,58.636Z" transform="translate(9.767)" fill="#aa0c0c"/>
    <path id="Path_1969" data-name="Path 1969" d="M71.675,22.779,68.759,25.7A38.442,38.442,0,1,0,42.722,92.418,38.174,38.174,0,0,0,68.76,82.251l2.916,2.916a1.58,1.58,0,0,0,2.241,0,44.117,44.117,0,0,0,0-62.389A1.587,1.587,0,0,0,71.675,22.779ZM42.721,89.248A35.275,35.275,0,1,1,66.489,27.964L60.7,33.749a27.1,27.1,0,1,0,0,40.447l5.787,5.787a35.006,35.006,0,0,1-23.77,9.266Zm0-11.342A23.961,23.961,0,0,1,19.734,60.57a9.862,9.862,0,0,0,4.381-2.051,9.72,9.72,0,0,0,12.406,0,9.72,9.72,0,0,0,12.406,0,9.718,9.718,0,0,0,12.4,0,9.844,9.844,0,0,0,4.381,2.051,23.963,23.963,0,0,1-22.99,17.336ZM66.372,57.459a6.7,6.7,0,0,1-3.85-2.183,1.636,1.636,0,0,0-2.387,0,6.586,6.586,0,0,1-10.017,0,1.58,1.58,0,0,0-2.387,0,6.586,6.586,0,0,1-10.019,0,1.58,1.58,0,0,0-2.387,0,6.673,6.673,0,0,1-5.01,2.311,6.584,6.584,0,0,1-5.009-2.311,1.636,1.636,0,0,0-2.387,0,6.611,6.611,0,0,1-3.848,2.186,23.935,23.935,0,1,1,47.3,0Zm6.4,24.32-9.824-9.824a26.939,26.939,0,0,0,0-35.965l9.824-9.824a40.917,40.917,0,0,1,0,55.612Z" transform="translate(0 9.083)" fill="#aa0c0c"/>
    <path id="Path_1970" data-name="Path 1970" d="M39.366,46.928a1.585,1.585,0,0,0-1.585-1.585H30.219a1.585,1.585,0,1,0,0,3.17h7.562A1.585,1.585,0,0,0,39.366,46.928Zm7.868,4.086H39.672a1.585,1.585,0,1,0,0,3.17h7.562a1.585,1.585,0,0,0,0-3.17Zm-18.9,0H20.768a1.585,1.585,0,1,0,0,3.17H28.33a1.585,1.585,0,0,0,0-3.17Z" transform="translate(8.72 26.525)" fill="#aa0c0c"/>
  </g>
</svg>
