<svg id="Customer_Focus" data-name="Customer Focus" xmlns="http://www.w3.org/2000/svg" width="54.451" height="54.451" viewBox="0 0 54.451 54.451">
  <path id="Path_1978" data-name="Path 1978" d="M34.225,18.963A15.263,15.263,0,1,1,18.963,34.225,15.262,15.262,0,0,1,34.225,18.963ZM44.74,42.7a13.506,13.506,0,1,0-21.03,0,10.95,10.95,0,0,1,6.978-7.382,5.958,5.958,0,1,1,7.074,0A10.95,10.95,0,0,1,44.74,42.7ZM25.17,44.247a13.508,13.508,0,0,0,18.111,0,9.164,9.164,0,0,0-18.111,0Zm9.055-9.511a4.2,4.2,0,1,0-4.2-4.2A4.213,4.213,0,0,0,34.225,34.736Zm25.454.368H54.636l.7.833a.878.878,0,0,1-1.343,1.132l-1.919-2.278a.878.878,0,0,1,0-1.132l1.919-2.278a.878.878,0,0,1,1.343,1.132l-.7.833h5.937a.879.879,0,0,1,.878.878A27.25,27.25,0,0,1,39.492,60.94a.878.878,0,0,1-.338-1.724A25.494,25.494,0,0,0,59.679,35.1ZM33.347,13.815V7.878A.879.879,0,0,1,34.225,7,27.25,27.25,0,0,1,60.94,28.959a.878.878,0,0,1-1.724.338A25.494,25.494,0,0,0,35.1,8.771v5.043l.833-.7a.878.878,0,0,1,1.132,1.343l-2.278,1.919a.878.878,0,0,1-1.132,0l-2.278-1.919a.878.878,0,0,1,1.132-1.343ZM8.771,33.347h5.043l-.7-.833a.878.878,0,0,1,1.343-1.132l1.919,2.278a.878.878,0,0,1,0,1.132l-1.919,2.278a.878.878,0,0,1-1.343-1.132l.7-.833H7.878A.879.879,0,0,1,7,34.225,27.25,27.25,0,0,1,28.959,7.51.878.878,0,1,1,29.3,9.234,25.494,25.494,0,0,0,8.771,33.347ZM33.347,59.679V54.636l-.833.7a.878.878,0,0,1-1.132-1.343l2.278-1.919a.878.878,0,0,1,1.132,0l2.278,1.919a.878.878,0,0,1-1.132,1.343l-.833-.7v5.937a.879.879,0,0,1-.878.878A27.25,27.25,0,0,1,7.51,39.492a.878.878,0,0,1,1.724-.338A25.494,25.494,0,0,0,33.347,59.679Z" transform="translate(-7 -7)" fill="#fff" fill-rule="evenodd"/>
</svg>
