<svg xmlns="http://www.w3.org/2000/svg" width="31.874" height="44.264" viewBox="0 0 31.874 44.264">
  <g id="Excellence" transform="translate(0 0)">
    <path id="Path_1979" data-name="Path 1979" d="M713.3,484.581a9.219,9.219,0,1,1,6.519-2.7,9.159,9.159,0,0,1-6.519,2.7Zm0-17.055a7.836,7.836,0,1,0,7.836,7.836,7.845,7.845,0,0,0-7.836-7.836Z" transform="translate(-697.367 -460.086)" fill="#fff"/>
    <path id="Path_1980" data-name="Path 1980" d="M482.7,286.507a2.4,2.4,0,0,1-.745-.115,4.537,4.537,0,0,1-2.216-2.311,3.134,3.134,0,0,0-2.894-2.1,4.527,4.527,0,0,1-2.858-1.382,4.436,4.436,0,0,1-.431-3.123,5.285,5.285,0,0,0-.027-1.908,5,5,0,0,0-1.061-1.485,3.432,3.432,0,0,1,0-5.706,5,5,0,0,0,1.061-1.485,5.287,5.287,0,0,0,.027-1.908,4.435,4.435,0,0,1,.431-3.123,4.526,4.526,0,0,1,2.858-1.382,3.134,3.134,0,0,0,2.894-2.1,4.536,4.536,0,0,1,2.216-2.31,4.4,4.4,0,0,1,3.065.554,3.307,3.307,0,0,0,3.721,0,4.4,4.4,0,0,1,3.065-.554,4.536,4.536,0,0,1,2.216,2.311,3.134,3.134,0,0,0,2.894,2.1,4.526,4.526,0,0,1,2.858,1.382,4.436,4.436,0,0,1,.431,3.123,5.288,5.288,0,0,0,.027,1.908,5,5,0,0,0,1.061,1.485,3.432,3.432,0,0,1,0,5.706,5,5,0,0,0-1.061,1.485,5.288,5.288,0,0,0-.027,1.908,4.436,4.436,0,0,1-.431,3.123,4.526,4.526,0,0,1-2.858,1.382,3.134,3.134,0,0,0-2.894,2.1,4.536,4.536,0,0,1-2.216,2.311,4.4,4.4,0,0,1-3.065-.554,3.307,3.307,0,0,0-3.721,0A6.089,6.089,0,0,1,482.7,286.507Zm0-29.168a1.03,1.03,0,0,0-.319.046c-.565.184-1.015.951-1.449,1.694a4.395,4.395,0,0,1-3.79,2.752,3.622,3.622,0,0,0-2.038.845,3.545,3.545,0,0,0-.172,2.177,6.186,6.186,0,0,1-.088,2.467,5.96,5.96,0,0,1-1.344,1.978c-.578.648-1.175,1.319-1.175,1.933s.6,1.285,1.175,1.933a5.96,5.96,0,0,1,1.344,1.978,6.186,6.186,0,0,1,.088,2.467,3.546,3.546,0,0,0,.172,2.177,3.622,3.622,0,0,0,2.038.845,4.395,4.395,0,0,1,3.79,2.752c.435.742.884,1.51,1.449,1.694a3.521,3.521,0,0,0,2.087-.507,4.572,4.572,0,0,1,4.822,0,3.523,3.523,0,0,0,2.087.507c.565-.184,1.015-.951,1.449-1.694a4.4,4.4,0,0,1,3.79-2.752,3.623,3.623,0,0,0,2.038-.845,3.546,3.546,0,0,0,.172-2.177,6.185,6.185,0,0,1,.088-2.467,5.959,5.959,0,0,1,1.344-1.978c.578-.648,1.175-1.319,1.175-1.933s-.6-1.285-1.175-1.933a5.96,5.96,0,0,1-1.344-1.978,6.185,6.185,0,0,1-.088-2.467,3.545,3.545,0,0,0-.172-2.177,3.622,3.622,0,0,0-2.038-.845,4.4,4.4,0,0,1-3.79-2.752c-.435-.742-.884-1.51-1.449-1.694a3.522,3.522,0,0,0-2.087.507,4.572,4.572,0,0,1-4.822,0A5.14,5.14,0,0,0,482.706,257.339Z" transform="translate(-470.948 -255.955)" fill="#fff"/>
    <path id="Path_1981" data-name="Path 1981" d="M537.293,1140.341a.692.692,0,0,1-.649-.453l-2.328-6.347-5.418,4.044a.692.692,0,0,1-1.077-.751l4.559-15.333a.692.692,0,0,1,1.326.394l-3.965,13.335,4.491-3.352a.691.691,0,0,1,1.063.316l1.93,5.261,3.844-12.928a.692.692,0,1,1,1.326.394l-4.438,14.927A.691.691,0,0,1,537.293,1140.341Z" transform="translate(-526.154 -1096.077)" fill="#fff"/>
    <path id="Path_1982" data-name="Path 1982" d="M841.9,626.133a.692.692,0,0,1-.663-.495L836.8,610.712a.692.692,0,0,1,1.326-.394l3.844,12.928,1.93-5.261a.692.692,0,0,1,1.063-.316l4.491,3.352-3.965-13.335a.692.692,0,0,1,1.326-.394l4.559,15.333a.692.692,0,0,1-1.077.751l-5.418-4.044-2.328,6.347A.691.691,0,0,1,841.9,626.133Zm-7.8-23.977a.691.691,0,0,1-.676-.839l.652-3-2.291-2.044a.692.692,0,0,1,.391-1.2l3.054-.307,1.236-2.81a.692.692,0,0,1,1.266,0l1.236,2.81,3.054.307a.692.692,0,0,1,.391,1.2l-2.291,2.044.652,3a.692.692,0,0,1-1.024.744l-2.651-1.547-2.651,1.547A.691.691,0,0,1,834.1,602.156Zm-.22-5.867,1.418,1.265a.692.692,0,0,1,.215.663l-.4,1.857,1.642-.958a.692.692,0,0,1,.7,0l1.642.958-.4-1.857a.692.692,0,0,1,.215-.663l1.418-1.265-1.891-.19a.691.691,0,0,1-.564-.41l-.765-1.74-.765,1.74a.692.692,0,0,1-.564.41Z" transform="translate(-821.16 -581.869)" fill="#fff"/>
  </g>
</svg>
