<?xml version="1.0" encoding="UTF-8"?>
<svg id="Layer_2" data-name="Layer 2" xmlns="http://www.w3.org/2000/svg" viewBox="0 0 595.5 163">
  <defs>
    <style>
      .cls-1 {
        fill: #7b7b7b;
      }

      .cls-2 {
        fill: #ffde59;
      }
    </style>
  </defs>
  <g id="Layer_1-2" data-name="Layer 1">
    <g>
      <polygon class="cls-2" points="577.3 130.69 536.32 163 475.59 163 425.09 105.56 369.17 163 221.49 163 193.07 135.12 152.26 163 0 163 0 104.59 31.98 135.12 185.68 37.58 284.6 132.16 445.78 10.98 577.3 130.69"/>
      <path class="cls-1" d="M595.5,83.62v73.37c-1.05,1.99-2.08,3.99-3.08,6.01h-18.57c-11.34-22.64-28-58.92-35.35-72.96-.05-.1-6.82-12.77-7.42-12.01-21.91,27.34-47.27,50.71-69.49,77.9-.48.59-2.45,3.41-5.04,7.07h-33.61c-9.84-19.15-16.92-44.92-23.93-59.28-.28-.57-6.48-13.44-7.08-13.06-9.62,6.01-20.88,26.63-29.02,35.79-7.58,8.55-15.08,17.23-22.26,26.32-2.25,2.85-4.42,6.48-6.54,10.23h-25.57c-4.6-24.04-5.54-65.43-13.6-75.49-1.77-2.22-3.45,4.54-5.06,6.94-6.86,10.29-13.9,20.37-21.08,30.33-9.31,12.88-18.89,25.49-28.36,38.22h-69.18c16.46-36.68,52.97-81.78,65.83-100.13,14.22-20.28,29.15-44.55,45.37-61.9.65-.69,1.99-1.21,2.87-.85,5.91,2.47,31.14,66.22,33.9,74.33,2.39,7.04,4.1,14.45,6.07,21.69,1.19,4.37,2.53,18.09,2.53,13.47,0-2.78,20.75-23.85,25.98-32.41,8.39-13.76,18.28-25.97,27.83-38.53,8.96-11.8,9.98-1.51,16.36,12.41,7.22,15.77,34.59,60.87,44.53,73.27.54.68,5.35-6.23,5.73-6.74,4.42-6.01,8.72-11.99,13.33-17.89,7.91-10.15,66.26-85.14,72.69-83.8,16.32,3.39,30.05,37.01,38.29,52.21,4.58,8.46,9.81,16.38,14.34,24.85.52.97,1.52,2.95,1.52,2.95,0,0,2.3-3.74,3.37-5.69,1.22-2.22,2.46-4.42,3.7-6.62Z"/>
    </g>
  </g>
</svg>