<svg xmlns="http://www.w3.org/2000/svg" width="726.507" height="293.437" viewBox="0 0 726.507 293.437">
  <g id="Group_76329" data-name="Group 76329" transform="translate(-296 -7032)">
    <g id="Group_201" data-name="Group 201" transform="translate(296 7032)">
      <g id="Rectangle_81" data-name="Rectangle 81" transform="translate(7.708 27.314)" fill="none" stroke="#a39d81" stroke-width="2">
        <rect width="711.092" height="238.809" stroke="none"/>
        <rect x="1" y="1" width="709.092" height="236.809" fill="none"/>
      </g>
      <g id="Path_166" data-name="Path 166" transform="matrix(0.996, -0.087, 0.087, 0.996, 0, 61.788)" fill="none">
        <path d="M.223.69,708.938,0l-.223,231.843L0,232.533Z" stroke="none"/>
        <path d="M 706.9364624023438 2.001968383789062 L 2.2213134765625 2.68798828125 L 2.00189208984375 230.5313415527344 L 706.717041015625 229.8452301025391 L 706.9364624023438 2.001968383789062 M 708.9384155273438 1.52587890625e-05 L 708.7151489257812 231.8432922363281 L -6.103515625e-05 232.5332946777344 L 0.2232666015625 0.6899261474609375 L 708.9384155273438 1.52587890625e-05 Z" stroke="none" fill="#a39d81"/>
      </g>
    </g>
    <g id="Group_203" data-name="Group 203" transform="translate(329.228 7114.258)">
      <text id="هناك_حقيقة_مثبتة_منذ_زمن_طويل_وهي_أن_المحتوى_المقروء_لصفحة_ما_سيلهي_القارئ_عن_التركيز_على_الشكل_الخارجي_للنص_أو_شكل_توضع_الفقرات_في_الصفحة_التي_يقرأها._ولذلك_يتم_استخدام_طريقة_لوريم_إيبسوم_لأنها_تعطي_توزيعاَ_طبيعياَ_-إلى_حد_ما-_للأحرف_عوضاً_عن_استخدام_هنا" data-name="هناك حقيقة مثبتة منذ زمن طويل وهي أن المحتوى المقروء لصفحة ما سيلهي القارئ عن التركيز على الشكل الخارجي للنص أو شكل توضع الفقرات في الصفحة التي يقرأها. ولذلك يتم استخدام طريقة لوريم إيبسوم لأنها تعطي توزيعاَ طبيعياَ -إلى حد ما- للأحرف عوضاً عن استخدام &quot;هنا" transform="translate(0.216 0.284)" fill="#fff" font-size="22" font-family="BahijTheSansArabic-Plain, Bahij TheSansArabic Plain"><tspan x="13" y="24">هناك حقيقة مثبتة منذ زمن طويل وهي أن المحتوى المقروء لصفحة ما</tspan><tspan y="24"> </tspan><tspan x="32" y="67">سيلهي القارئ عن التركيز على الشكل الخارجي للنص أو شكل توضع</tspan><tspan y="67"> </tspan></text>
      <text id="اسم_المستخدم" data-name="اسم المستخدم" transform="translate(370.216 117.284)" fill="#fff" font-size="14" font-family="BahijTheSansArabic-Bold, Bahij TheSansArabic" font-weight="700"><tspan x="-93" y="0">اسم المستخدم</tspan></text>
    </g>
    <g id="svgexport-6_18_" data-name="svgexport-6 (18)" transform="translate(944.691 7080.231)">
      <g id="Group_202" data-name="Group 202">
        <path id="Path_167" data-name="Path 167" d="M6.546,19.107a16.792,16.792,0,0,1-3.06,4.833A1.461,1.461,0,0,0,3.347,25.7a1.434,1.434,0,0,0,1.228.673,1.209,1.209,0,0,0,.416-.059c2.912-.852,9.715-3.872,9.9-13.558A7.137,7.137,0,0,0,8.675,5.45,6.943,6.943,0,0,0,1,12.362,6.864,6.864,0,0,0,6.546,19.107Z" transform="translate(-1 -5.414)" fill="#a39d81"/>
        <path id="Path_168" data-name="Path 168" d="M24.635,5.45a6.941,6.941,0,0,0-7.665,6.913,6.864,6.864,0,0,0,5.546,6.744,16.793,16.793,0,0,1-3.06,4.833,1.461,1.461,0,0,0-.139,1.763,1.434,1.434,0,0,0,1.228.673,1.208,1.208,0,0,0,.416-.059c2.912-.852,9.715-3.872,9.9-13.558V12.62a7.13,7.13,0,0,0-6.229-7.17Z" transform="translate(-1.154 -5.414)" fill="#a39d81"/>
      </g>
    </g>
    <g id="svgexport-6_18_2" data-name="svgexport-6 (18)" transform="translate(344.929 7255.279)">
      <g id="Group_202-2" data-name="Group 202" transform="translate(0 0)">
        <path id="Path_167-2" data-name="Path 167" d="M9.35,19.107a16.792,16.792,0,0,0,3.06,4.833,1.461,1.461,0,0,1,.139,1.763,1.434,1.434,0,0,1-1.228.673,1.209,1.209,0,0,1-.416-.059C7.993,25.465,1.189,22.444,1,12.758A7.137,7.137,0,0,1,7.221,5.45,6.942,6.942,0,0,1,14.9,12.362,6.864,6.864,0,0,1,9.35,19.107Z" transform="translate(14.815 -5.414)" fill="#a39d81"/>
        <path id="Path_168-2" data-name="Path 168" d="M23.2,5.45a6.941,6.941,0,0,1,7.665,6.913,6.864,6.864,0,0,1-5.546,6.744,16.793,16.793,0,0,0,3.06,4.833,1.461,1.461,0,0,1,.139,1.763,1.434,1.434,0,0,1-1.228.673,1.208,1.208,0,0,1-.416-.059c-2.912-.852-9.715-3.872-9.9-13.558V12.62A7.13,7.13,0,0,1,23.2,5.45Z" transform="translate(-16.97 -5.414)" fill="#a39d81"/>
      </g>
    </g>
  </g>
</svg>
