<?xml version="1.0" encoding="UTF-8"?>
<svg id="Layer_2" data-name="Layer 2" xmlns="http://www.w3.org/2000/svg" viewBox="0 0 574.17 132.08">
  <defs>
    <style>
      .cls-1 {
        fill: #7b7b7b;
      }

      .cls-2 {
        fill: #fefefe;
      }

      .cls-3 {
        fill: #fada57;
      }

      .cls-4 {
        fill: #090909;
      }
    </style>
  </defs>
  <g id="Layer_1-2" data-name="Layer 1">
    <g>
      <path class="cls-1" d="M574.17.54v70.37c-2.18,2.85-4.34,5.7-6.5,8.56-1.52,2.01-17.33,24.72-19.3,23.49-16.52-10.32-32.56-39.98-42.13-59.23-1.36-2.73-17.11-32.44-18.17-31.11-5.03,6.27-8.93,20.81-14.32,28.5-7.93,11.32-75.44,90.96-81.21,90.96-6.27,0-30.31-65.61-32.96-75.29-2.63-9.58-4.47-19.69-6.44-29.52-.13-.65-.18-.89-.19-.88,0,.12.12,1.04.03,1.49-4.48,22.4-34.85,48.62-47.44,65.65-2.51,3.39-13.56,22.49-17.68,22.49-1.72,0-7.79-27.52-9.01-31.33-1.4-4.38-4.38-7.12-5.95-11.05-.31-.76-2.74-5.81-2.57-5.81l4.63-6.94c4.08-14.48,21.36-34.8,29.46-46.47,3.45-4.96,7.08-9.7,10.73-14.42h81.22c10.29,16.8,20.08,30.7,23.51,29.28,5.63-2.35,14.22-14.53,23.27-29.28h88.58c8.56,20.35,16.57,36.83,21.95,38.51,1.26.4,15.18-28.6,15.92-29.92.69-1.23,2.3-4.08,4.57-8.05Z"/>
      <g>
        <polygon class="cls-3" points="125.72 86.37 10.98 86.9 2.63 29.52 116.89 29.23 125.72 86.37"/>
        <polygon class="cls-2" points="221.68 100.45 130 86.26 122.07 30.05 213.36 44.37 221.68 100.45"/>
        <path class="cls-4" d="M215.82,42.17l8.47,61.41-96.42-14.72-118.1.55L0,27.14c39.17-.19,117.63-.74,117.63-.74l98.19,15.77ZM125.72,86.37l-8.83-57.14-114.25.29,8.35,57.37,114.74-.52ZM221.68,100.45l-8.32-56.09-91.29-14.32,7.93,56.22,91.67,14.19Z"/>
        <g>
          <path d="M13.72,43.36h10.58l-.25,5.58h-4.33l-.23,5.29h3.86l-.23,5.3h-3.86l-.52,11.71h-6.25l1.23-27.88Z"/>
          <path d="M30.38,57.24h-5.63l.07-1.53c.08-1.77.31-3.13.71-4.09.39-.96,1.14-1.8,2.23-2.54,1.09-.73,2.48-1.1,4.18-1.1,2.03,0,3.54.42,4.53,1.25.99.83,1.57,1.85,1.72,3.06.15,1.21.15,3.7-.02,7.48l-.51,11.47h-5.83l.09-2.04c-.4.82-.9,1.43-1.5,1.84-.6.41-1.3.61-2.1.61-1.05,0-2-.34-2.84-1.02-.85-.68-1.22-2.18-1.12-4.49l.08-1.88c.08-1.71.36-2.88.85-3.5.49-.62,1.68-1.34,3.55-2.17,2.01-.9,3.09-1.5,3.24-1.81.15-.31.25-.94.29-1.89.05-1.19.01-1.97-.13-2.33-.14-.36-.38-.54-.74-.54-.41,0-.67.15-.78.46-.11.3-.2,1.09-.25,2.37l-.11,2.39ZM32.14,60.37c-1,.81-1.58,1.5-1.76,2.05-.18.55-.29,1.34-.33,2.38-.05,1.18-.02,1.95.1,2.29.12.34.38.52.77.52s.63-.14.75-.4c.13-.27.21-.98.26-2.13l.21-4.7Z"/>
          <path d="M52.66,55.69h-5.31l.05-1.24c.05-1.06.02-1.72-.07-2.01-.09-.28-.35-.42-.76-.42-.34,0-.59.13-.77.39-.18.26-.28.65-.3,1.16-.03.7-.01,1.21.06,1.54.07.33.31.69.71,1.08.4.39,1.24.96,2.51,1.7,1.7.99,2.8,1.92,3.31,2.79.51.87.72,2.14.65,3.8-.08,1.86-.35,3.26-.81,4.21-.46.95-1.18,1.68-2.18,2.19-1,.51-2.18.77-3.56.77-1.52,0-2.82-.28-3.88-.83-1.06-.55-1.77-1.3-2.14-2.24-.36-.94-.5-2.36-.42-4.27l.05-1.1h5.31l-.06,1.45c-.05,1.23-.02,2.03.09,2.39.12.37.37.55.77.55.43,0,.73-.12.91-.37.18-.25.29-.77.32-1.56.05-1.09-.03-1.77-.24-2.05-.22-.27-1.34-1.09-3.38-2.44-1.71-1.15-2.74-2.19-3.08-3.12-.34-.94-.49-2.05-.43-3.33.08-1.83.35-3.17.8-4.04.45-.87,1.19-1.54,2.2-2.01,1.02-.47,2.18-.71,3.5-.71s2.41.19,3.31.58c.9.38,1.58.89,2.04,1.52s.73,1.22.81,1.76c.08.54.09,1.38.04,2.53l-.06,1.33Z"/>
          <path d="M60.01,57.24h-5.63l.07-1.53c.08-1.77.31-3.13.71-4.09.39-.96,1.14-1.8,2.23-2.54,1.09-.73,2.48-1.1,4.18-1.1,2.03,0,3.54.42,4.53,1.25.99.83,1.57,1.85,1.72,3.06.15,1.21.15,3.7-.02,7.48l-.51,11.47h-5.83l.09-2.04c-.4.82-.9,1.43-1.5,1.84-.6.41-1.3.61-2.1.61-1.05,0-2-.34-2.84-1.02-.85-.68-1.22-2.18-1.12-4.49l.08-1.88c.08-1.71.36-2.88.85-3.5.49-.62,1.68-1.34,3.55-2.17,2.01-.9,3.09-1.5,3.24-1.81.15-.31.25-.94.29-1.89.05-1.19.01-1.97-.13-2.33-.14-.36-.38-.54-.74-.54-.41,0-.67.15-.78.46-.11.3-.2,1.09-.25,2.37l-.11,2.39ZM61.77,60.37c-1,.81-1.58,1.5-1.76,2.05-.18.55-.29,1.34-.33,2.38-.05,1.18-.02,1.95.1,2.29.12.34.38.52.77.52s.63-.14.75-.4c.13-.27.21-.98.26-2.13l.21-4.7Z"/>
          <path d="M83.27,48.39l-2.83,9.1,2.56,13.75h-5.77l-1.43-9.96-.45,9.96h-6l1.23-27.88h6l-.51,11.7,2.16-6.67h5.04Z"/>
          <path d="M91.11,43.36l-.28,6.27c.54-.55,1.11-.97,1.72-1.24.61-.28,1.26-.41,1.94-.41,1.05,0,1.93.31,2.64.93.71.62,1.13,1.33,1.26,2.14.13.81.14,2.29.05,4.43l-.69,15.75h-6l.71-16.08c.06-1.33.04-2.19-.06-2.57-.1-.38-.34-.57-.74-.57-.37,0-.62.2-.77.59s-.24,1.17-.3,2.32l-.72,16.31h-6l1.23-27.88h6Z"/>
          <path d="M105.78,57.24h-5.63l.07-1.53c.08-1.77.31-3.13.71-4.09.39-.96,1.14-1.8,2.23-2.54,1.09-.73,2.48-1.1,4.17-1.1,2.03,0,3.54.42,4.53,1.25.99.83,1.57,1.85,1.72,3.06.15,1.21.15,3.7-.02,7.48l-.51,11.47h-5.83l.09-2.04c-.4.82-.9,1.43-1.5,1.84-.6.41-1.3.61-2.1.61-1.05,0-2-.34-2.84-1.02-.85-.68-1.22-2.18-1.12-4.49l.08-1.88c.08-1.71.36-2.88.85-3.5.49-.62,1.68-1.34,3.55-2.17,2.01-.9,3.09-1.5,3.24-1.81.15-.31.25-.94.29-1.89.05-1.19.01-1.97-.13-2.33-.14-.36-.38-.54-.74-.54-.41,0-.66.15-.78.46-.11.3-.2,1.09-.25,2.37l-.11,2.39ZM107.55,60.37c-1,.81-1.58,1.5-1.76,2.05-.18.55-.29,1.34-.33,2.38-.05,1.18-.02,1.95.1,2.29.12.34.38.52.77.52s.63-.14.75-.4c.13-.27.21-.98.26-2.13l.21-4.7Z"/>
        </g>
        <g>
          <path d="M159.67,46.63l-7.88,26.76-5.25-1.55.47-13.09-3.58,12.17-5.01-1.48,7.88-26.77,5.01,1.48-.19,13.04,3.55-12.05,5.01,1.48Z"/>
          <path d="M166.4,53.86l-6.46,21.94-5.92-1.74,6.46-21.94,5.92,1.74ZM167.82,49.04l-1.03,3.49-5.92-1.75,1.03-3.49,5.92,1.75Z"/>
          <path d="M174.32,56.2l-.69,1.99c.65-.68,1.34-1.14,2.06-1.36.72-.22,1.48-.22,2.26,0,.99.29,1.71.8,2.18,1.52.47.72.67,1.52.61,2.4s-.38,2.27-.94,4.19l-4.53,15.38-5.75-1.69,4.47-15.19c.44-1.51.67-2.44.68-2.8.01-.36-.18-.59-.57-.71-.41-.12-.72,0-.94.34-.22.35-.57,1.35-1.06,3l-4.37,14.83-5.75-1.69,6.46-21.94,5.85,1.72Z"/>
          <path d="M189.81,60.76l-5.11,17.36c-.6,2.04-1.04,3.41-1.33,4.11-.28.7-.69,1.27-1.21,1.71-.53.44-1.13.7-1.82.78-.69.08-1.65-.05-2.87-.41l-2.22-.65,1.03-3.5c.68.2,1.09.23,1.23.08.14-.15.5-1.24,1.1-3.27l5.28-17.94,5.92,1.75ZM191.23,55.93l-1.03,3.49-5.92-1.74,1.03-3.49,5.92,1.74Z"/>
          <path d="M194.51,71.38l-5.4-1.59.43-1.47c.5-1.7,1.05-2.96,1.66-3.78.61-.82,1.52-1.43,2.75-1.84,1.22-.41,2.65-.37,4.27.11,1.95.57,3.29,1.41,4.05,2.5.75,1.09,1.06,2.25.91,3.47-.14,1.22-.75,3.65-1.82,7.27l-3.24,11.01-5.59-1.65.58-1.96c-.58.68-1.21,1.14-1.88,1.36s-1.39.23-2.16,0c-1.01-.3-1.83-.9-2.48-1.8-.65-.9-.64-2.46,0-4.68l.53-1.8c.48-1.64,1.04-2.7,1.66-3.16.62-.46,1.93-.83,3.93-1.11,2.14-.3,3.32-.58,3.54-.84.22-.26.46-.84.73-1.76.34-1.15.48-1.91.44-2.3-.04-.39-.24-.64-.58-.74-.39-.11-.67-.04-.86.22-.18.26-.45,1.01-.81,2.23l-.68,2.3ZM195.45,74.92c-1.15.51-1.88,1.01-2.18,1.5s-.6,1.22-.89,2.22c-.33,1.13-.49,1.89-.46,2.26.03.37.24.61.62.72.36.11.63.04.82-.18.18-.23.44-.89.76-1.99l1.33-4.51Z"/>
        </g>
      </g>
    </g>
  </g>
</svg>