<svg xmlns="http://www.w3.org/2000/svg" width="45.856" height="45.843" viewBox="0 0 45.856 45.843">
  <g id="Innovation" transform="translate(0 -0.067)">
    <path id="Path_1983" data-name="Path 1983" d="M45.2,13.9h0l0,0-2.96-.422a.761.761,0,0,1-.349-1.362l2.392-1.794a.761.761,0,0,0,.152-1.065L41.7,5.6a.761.761,0,0,0-1.065-.152L38.241,7.247a.761.761,0,0,1-1.213-.716l.423-2.96a.761.761,0,0,0-.645-.861h0l-4.517-.645a.761.761,0,0,0-.861.645h0L31,5.67a.761.761,0,0,1-1.362.349L27.848,3.627a.761.761,0,0,0-1.065-.152L24.5,5.19a14.722,14.722,0,0,0-3.112,0A14.457,14.457,0,0,0,8.638,18.154c-.021.215-.028.429-.039.643H8.371a.761.761,0,0,0-.744.609l-.526,2.5L4.994,20.453a.761.761,0,0,0-.97.088L1.742,22.824a.761.761,0,0,0-.088.969L3.1,25.9l-2.5.526a.761.761,0,0,0-.6.745V30.21a.761.761,0,0,0,.6.745l2.5.526-1.446,2.1a.761.761,0,0,0,.088.969L4.03,36.835a.761.761,0,0,0,.97.088l2.1-1.449.526,2.5a.761.761,0,0,0,.744.609h3.044a.761.761,0,0,0,.745-.6l.526-2.5,2.1,1.446a.761.761,0,0,0,.969-.088L16.94,35.65v2.169a3.034,3.034,0,0,0,1.522,2.62v4.227a3.044,3.044,0,0,0,3.044,3.044h3.044a3.044,3.044,0,0,0,3.044-3.044V40.439a3.034,3.034,0,0,0,1.522-2.62V34.807a3.728,3.728,0,0,1,1.76-3.106,14.6,14.6,0,0,0,1.791-1.37L31.651,29.2a12.953,12.953,0,0,1-1.6,1.226,5.241,5.241,0,0,0-2.455,4.383v3.012a1.522,1.522,0,0,1-1.522,1.522H19.984a1.522,1.522,0,0,1-1.522-1.522V34.744a5.119,5.119,0,0,0-2.414-4.294A12.9,12.9,0,0,1,22.864,6.634a.828.828,0,0,0-.03.083.761.761,0,0,0,.145.564l1.793,2.391a.745.745,0,0,1,.046.845.756.756,0,0,1-.761.366l-2.96-.423a.761.761,0,0,0-.861.645h0l-.646,4.519a.761.761,0,0,0,.645.861h0l2.96.423a.761.761,0,0,1,.349,1.362l-2.391,1.793A.761.761,0,0,0,21,21.129l2.739,3.652a.761.761,0,0,0,1.065.152L27.2,23.14a.761.761,0,0,1,1.209.716l-.422,2.96a.761.761,0,0,0,.645.861h0l4.52.646a.843.843,0,0,0,.107.007.761.761,0,0,0,.754-.653l.422-2.96a.761.761,0,0,1,1.362-.349L37.59,26.76a.761.761,0,0,0,1.065.152l3.652-2.739a.761.761,0,0,0,.152-1.065l-1.793-2.391a.748.748,0,0,1-.046-.845.739.739,0,0,1,.761-.365l2.96.422a.761.761,0,0,0,.861-.645h0l.645-4.52A.761.761,0,0,0,45.2,13.9ZM19.984,40.862h6.087v1.522H19.984Zm0,3.044h6.087v.761a1.522,1.522,0,0,1-1.522,1.522H21.506a1.522,1.522,0,0,1-1.522-1.522ZM13.927,30.784a14.381,14.381,0,0,0,1.3.947,3.714,3.714,0,0,1,1.533,1.947l-1.632,1.629-1.58-1.09a1.522,1.522,0,0,0-2.353.94l-.4,1.9H8.988l-.4-1.9a1.522,1.522,0,0,0-2.353-.94L4.655,35.308,3.269,33.924l1.089-1.58a1.522,1.522,0,0,0-.939-2.353l-1.9-.4V27.784l1.9-.4a1.522,1.522,0,0,0,.94-2.349l-1.09-1.584,1.386-1.383,1.582,1.09a1.522,1.522,0,0,0,2.352-.94l.133-.633a14.49,14.49,0,0,0,.6,2.58,4.565,4.565,0,1,0,4.6,6.62Zm-1.182-1.072a3.039,3.039,0,1,1-2.853-4.068H9.92a14.41,14.41,0,0,0,2.825,4.068ZM43.8,18.313,41.593,18a2.283,2.283,0,0,0-2.149,3.629l1.337,1.783-2.435,1.826-1.338-1.782A2.283,2.283,0,0,0,32.923,24.5l-.308,2.21L29.6,26.279l.315-2.207a2.283,2.283,0,0,0-3.629-2.15L24.505,23.26l-1.826-2.435,1.782-1.338A2.283,2.283,0,0,0,23.415,15.4l-2.207-.315.431-3.012,2.207.315a2.283,2.283,0,0,0,2.15-3.629L24.653,6.975l2.435-1.826,1.338,1.783a2.283,2.283,0,0,0,4.086-1.046l.315-2.207,3.012.43-.315,2.207a2.283,2.283,0,0,0,3.629,2.149l1.783-1.337,1.826,2.435L40.98,10.9a2.283,2.283,0,0,0,1.046,4.086l2.207.315L43.8,18.313Z" transform="translate(0 -1.8)" fill="#fff"/>
    <path id="Path_1984" data-name="Path 1984" d="M40.11,7.305A6.087,6.087,0,1,0,46.2,13.392,6.087,6.087,0,0,0,40.11,7.305Zm0,10.652a4.565,4.565,0,1,1,4.565-4.565A4.565,4.565,0,0,1,40.11,17.958ZM29.659,33.736H31.18v2.283H29.659Zm-2.567-7.473A9.131,9.131,0,0,1,25.55,10.031l-.813-1.287a10.652,10.652,0,0,0,1.8,18.935,4.858,4.858,0,0,1,3.12,4.535H31.18A6.366,6.366,0,0,0,27.091,26.263Zm17.785,2.146H50.2v1.522H44.876Zm-1.248,5.149.974-1.169,4.566,3.8-.974,1.169Zm-3.318.938h1.522v5.326H40.311ZM8.169,13.214l6.087-1.521.369,1.475L8.538,14.689ZM9.433,5.441,10.317,4.2l5.326,3.8-.884,1.238Zm6.519-5L17.427.067l1.556,6.087-1.474.377Z" transform="translate(-7.392)" fill="#fff"/>
  </g>
</svg>
