<svg xmlns="http://www.w3.org/2000/svg" width="41.002" height="38.212" viewBox="0 0 41.002 38.212">
  <g id="svgexport-6_-_2022-08-16T105600.044" data-name="svgexport-6 - 2022-08-16T105600.044" transform="translate(0 -13.875)">
    <g id="Group_69101" data-name="Group 69101" transform="translate(0 13.875)">
      <path id="Path_1353" data-name="Path 1353" d="M73.193,270.816a1.716,1.716,0,0,0-2.216-.172l-.017-.011L69.489,272.1a1.693,1.693,0,0,0-.5,1.207A1.715,1.715,0,0,0,70.7,275.02a1.8,1.8,0,0,0,1.359-.651l1.137-1.137a1.707,1.707,0,0,0,0-2.416Z" transform="translate(-62.053 -244.537)" fill="#aa0c0c"/>
      <path id="Path_1354" data-name="Path 1354" d="M32.409,221.036a1.71,1.71,0,0,0-2.416,0l-1.288,1.289a1.708,1.708,0,0,0,2.415,2.416l1.289-1.289A1.709,1.709,0,0,0,32.409,221.036Z" transform="translate(-25.363 -199.76)" fill="#aa0c0c"/>
      <path id="Path_1355" data-name="Path 1355" d="M118.766,314.025a1.7,1.7,0,0,0-1.208.5l-1.289,1.289-.018.019a1.708,1.708,0,0,0,2.434,2.4l1.29-1.29A1.713,1.713,0,0,0,118.766,314.025Z" transform="translate(-104.133 -283.85)" fill="#aa0c0c"/>
      <path id="Path_1356" data-name="Path 1356" d="M26.1,25.152a6.838,6.838,0,0,1-8.468-.948L14.64,21.217l3.729-3.729A10.5,10.5,0,1,0,3.531,32.3a4.732,4.732,0,0,1,7.018,4.444A4.746,4.746,0,0,1,14.642,41.1a4.752,4.752,0,0,1,4.549,3.489,4.742,4.742,0,0,1,4.75,1.45l.034-.04a1.709,1.709,0,0,0,2.192-2.574l0,0c-.026-.025-6.789-6.788-6.789-6.788L21.514,34.5l6.712,6.712a1.708,1.708,0,0,0,2.415-2.416L23.93,32.083l2.132-2.132,6.712,6.712a1.708,1.708,0,1,0,2.416-2.416Z" transform="translate(0 -13.936)" fill="#aa0c0c"/>
      <path id="Path_1357" data-name="Path 1357" d="M207.09,16.939a10.5,10.5,0,0,0-14.823,0l-4.215,4.216.855.855a3.813,3.813,0,0,0,5.388,0l1.067-1.067c.567.573,10.977,10.966,11.27,11.279a10.541,10.541,0,0,0,.459-15.283Z" transform="translate(-169.146 -13.875)" fill="#aa0c0c"/>
      <path id="Path_1358" data-name="Path 1358" d="M177.277,347.716a1.71,1.71,0,0,0-2.416,0L173.573,349a1.708,1.708,0,0,0,2.416,2.416l1.289-1.289A1.718,1.718,0,0,0,177.277,347.716Z" transform="translate(-155.675 -313.704)" fill="#aa0c0c"/>
    </g>
  </g>
</svg>
