<svg xmlns="http://www.w3.org/2000/svg" xmlns:xlink="http://www.w3.org/1999/xlink" version="1.1" width="1000" height="1000" viewBox="0 0 1000 1000" xml:space="preserve">
<desc>Created with Fabric.js 3.5.0</desc>
<defs>
</defs>
<rect x="0" y="0" width="100%" height="100%" fill="rgba(255,255,255,0)"/>
<g transform="matrix(-42.2833 0 0 -42.2833 500 500)" id="205028">
<path style="stroke: none; stroke-width: 1; stroke-dasharray: none; stroke-linecap: butt; stroke-dashoffset: 0; stroke-linejoin: miter; stroke-miterlimit: 4; is-custom-font: none; font-file-url: none; fill: rgb(2,35,77); fill-rule: evenodd; opacity: 1;" vector-effect="non-scaling-stroke" transform=" translate(-12, -12)" d="M 5.383 14.58 A 5.113 5.113 0 0 1 1.25 9.564 c 0 -2.82 2.289 -5.109 5.109 -5.109 s 5.109 2.289 5.109 5.109 c 0 3.758 -1.266 6.092 -2.752 7.551 c -2.275 2.234 -5.124 2.428 -5.124 2.428 a 0.749 0.749 0 0 1 -0.665 -1.182 s 1.354 -1.906 2.198 -3.316 c 0.088 -0.148 0.177 -0.311 0.258 -0.465 z M 16.665 14.58 a 5.113 5.113 0 0 1 -4.133 -5.016 c 0 -2.82 2.289 -5.109 5.109 -5.109 s 5.109 2.289 5.109 5.109 c 0 3.758 -1.266 6.092 -2.752 7.551 c -2.275 2.234 -5.124 2.428 -5.124 2.428 a 0.749 0.749 0 0 1 -0.665 -1.182 s 1.354 -1.906 2.198 -3.316 c 0.088 -0.148 0.177 -0.311 0.258 -0.465 z" stroke-linecap="round"/>
</g>
</svg>