<svg xmlns="http://www.w3.org/2000/svg" xmlns:xlink="http://www.w3.org/1999/xlink" width="44.839" height="44.839" viewBox="0 0 44.839 44.839">
  <defs>
    <clipPath id="clip-path">
      <path id="Path_1993" data-name="Path 1993" d="M0-682.665H44.839v44.839H0Z" transform="translate(0 682.665)" fill="#fff"/>
    </clipPath>
  </defs>
  <g id="Reliability" transform="translate(0 -0.002)">
    <g id="Group_69274" data-name="Group 69274" transform="translate(0 0.002)" clip-path="url(#clip-path)">
      <path id="Path_1985" data-name="Path 1985" d="M-89.694-186.655v1.591a1.314,1.314,0,0,1-1.314,1.314h-3.853A1.138,1.138,0,0,1-96-184.889v-13.574a1.314,1.314,0,0,1,1.314-1.314h3.678a1.314,1.314,0,0,1,1.314,1.314v8.743" transform="translate(111.194 215.672)" fill="none" stroke="#fff" stroke-linecap="round" stroke-linejoin="round" stroke-width="2"/>
      <path id="Path_1986" data-name="Path 1986" d="M0-154.473H1.381a2.627,2.627,0,0,0,1.411-.411l3.588-2.283a4.379,4.379,0,0,0,2.028-3.694v-2.063a2.408,2.408,0,0,1,2.408-2.408h0a2.408,2.408,0,0,1,2.408,2.408l.005,8.014a.438.438,0,0,0,.438.438h5.421a2,2,0,0,1,2.016,1.9,1.97,1.97,0,0,1-1.969,2.042h1.576a1.97,1.97,0,0,1,1.969,2.042,2,2,0,0,1-2.016,1.9H19.135a1.97,1.97,0,0,1,1.969,2.042,2,2,0,0,1-2.016,1.9H16.771a1.533,1.533,0,0,1,1.532,1.5,1.565,1.565,0,0,1-1.573,1.562H3.446a4.379,4.379,0,0,1-2.16-.57L0-140.884" transform="translate(21.5 171.77)" fill="none" stroke="#fff" stroke-linecap="round" stroke-linejoin="round" stroke-width="2"/>
      <path id="Path_1987" data-name="Path 1987" d="M-51.076,0h-3.591" transform="translate(91.711 21.237)" fill="none" stroke="#fff" stroke-linecap="round" stroke-linejoin="round" stroke-width="2"/>
      <path id="Path_1988" data-name="Path 1988" d="M-51.076,0h-3.591" transform="translate(91.711 25.178)" fill="none" stroke="#fff" stroke-linecap="round" stroke-linejoin="round" stroke-width="2"/>
      <path id="Path_1989" data-name="Path 1989" d="M-16.195,0h-1.138" transform="translate(54.378 29.119)" fill="none" stroke="#fff" stroke-linecap="round" stroke-linejoin="round" stroke-width="2"/>
      <path id="Path_1990" data-name="Path 1990" d="M-398.082-403.83a14.585,14.585,0,0,1-13.4,8.831h0a14.582,14.582,0,0,1-14.582-14.581v-13.136a.438.438,0,0,1,.438-.438h.175a7.882,7.882,0,0,0,7.882-7.882v-.744a.438.438,0,0,1,.438-.438h11.3a.438.438,0,0,1,.438.438v.949a7.882,7.882,0,0,0,7.882,7.882" transform="translate(426.724 436.029)" fill="none" stroke="#fff" stroke-linecap="round" stroke-linejoin="round" stroke-width="2"/>
      <path id="Path_1991" data-name="Path 1991" d="M-169.422-338.222v8.232h0a11.91,11.91,0,0,1-11.91-11.91v-11.516a8.305,8.305,0,0,0,8.305-8.305V-362h3.605v6.437" transform="translate(184.617 368.392)" fill="none" stroke="#fff" stroke-linecap="round" stroke-linejoin="round" stroke-width="2"/>
      <path id="Path_1992" data-name="Path 1992" d="M-67.894,0h-3.722a1.051,1.051,0,0,0-1.051,1.051v11.3A1.051,1.051,0,0,0-71.616,13.4h3.722" transform="translate(83.044 17.209)" fill="none" stroke="#fff" stroke-linecap="round" stroke-linejoin="round" stroke-width="2"/>
    </g>
  </g>
</svg>
