<svg xmlns="http://www.w3.org/2000/svg" width="165.49" height="52.778" viewBox="0 0 165.49 52.778">
  <g id="Layer_1-2" transform="translate(277.813 0.005)">
    <g id="Group_1" data-name="Group 1" transform="translate(-218.3 20.064)">
      <path id="Path_13" data-name="Path 13" d="M315.929,103.156a6.1,6.1,0,0,0-1.848,4.454v.844h10.768a4.6,4.6,0,0,1-4.5,3.707H314.08v1.753h6.32a6.328,6.328,0,0,0,6.286-6.338V106.7H315.919a4.4,4.4,0,0,1,1.533-2.58,4.485,4.485,0,0,1,2.964-1.078h6.271V101.29h-6.3A6.159,6.159,0,0,0,315.929,103.156Z" transform="translate(-314.08 -101.29)" fill="#fff"/>
      <path id="Path_14" data-name="Path 14" d="M399.318,122.34A4.175,4.175,0,0,0,395.974,124a4.219,4.219,0,0,0-7.574,2.58v4.218h1.769v-4.218a2.393,2.393,0,0,1,.715-1.749,2.463,2.463,0,0,1,4.2,1.617v4.351h1.753v-4.347a2.382,2.382,0,0,1,.763-1.662,2.5,2.5,0,0,1,3.469.05,2.373,2.373,0,0,1,.731,1.741v4.218h1.738v-4.218a4.208,4.208,0,0,0-4.218-4.234Z" transform="translate(-373.676 -118.17)" fill="#fff"/>
      <path id="Path_15" data-name="Path 15" d="M478.494,122.17a4.253,4.253,0,0,0,0,8.505,4.216,4.216,0,0,0,2.482-.8v.8h1.753v-4.252a4.248,4.248,0,0,0-4.234-4.252Zm-1.751,2.5a2.463,2.463,0,1,1-.733,1.749A2.4,2.4,0,0,1,476.742,124.672Z" transform="translate(-442.525 -118.033)" fill="#fff"/>
      <path id="Path_16" data-name="Path 16" d="M528.944,123.462a4.064,4.064,0,0,0-1.254,2.958v4.3h1.753v-4.236A2.5,2.5,0,0,1,531.926,124h.1V122.25h-.1a4.13,4.13,0,0,0-2.982,1.211Z" transform="translate(-485.369 -118.097)" fill="#fff"/>
      <path id="Path_17" data-name="Path 17" d="M560.763,101.38H559.01v8.438a4,4,0,0,0,1.246,2.95,4.143,4.143,0,0,0,2.99,1.22h.1v-1.753h-.1a2.5,2.5,0,0,1-2.482-2.482V107.27h2.582v-1.753h-2.582Z" transform="translate(-510.484 -101.362)" fill="#fff"/>
      <path id="Path_18" data-name="Path 18" d="M612.078,112.185h-1.44a4.593,4.593,0,0,1-4.585-4.585V101.33H604.3v6.338a6.342,6.342,0,0,0,6.336,6.271h3.194V101.332h-1.753v10.853Z" transform="translate(-546.801 -101.322)" fill="#32f8bd"/>
      <rect id="Rectangle_4" data-name="Rectangle 4" width="1.753" height="8.47" transform="translate(69.164 4.147)" fill="#32f8bd"/>
      <path id="Path_19" data-name="Path 19" d="M663.976,103.076a.811.811,0,0,0,.608-.262.858.858,0,0,0,.252-.614.838.838,0,0,0-.252-.608.827.827,0,0,0-.608-.252.858.858,0,0,0-.614.252.817.817,0,0,0-.262.608.876.876,0,0,0,.876.878Z" transform="translate(-593.952 -101.33)" fill="#32f8bd"/>
      <path id="Path_20" data-name="Path 20" d="M683.941,123.474a4.25,4.25,0,0,0-1.211,3.039v.826h6.465a2.334,2.334,0,0,1-.84,1.1,2.38,2.38,0,0,1-1.438.485H682.73V130.7h4.186a4.253,4.253,0,0,0,4.184-4.186v-.943h-6.473a2.116,2.116,0,0,1,.719-1.024,2.53,2.53,0,0,1,1.351-.565h4.4V122.21h-4.186a3.979,3.979,0,0,0-2.976,1.262Z" transform="translate(-609.693 -118.065)" fill="#32f8bd"/>
      <rect id="Rectangle_5" data-name="Rectangle 5" width="1.753" height="8.47" transform="translate(83.542 4.147)" fill="#32f8bd"/>
      <path id="Path_21" data-name="Path 21" d="M736.556,103.076a.811.811,0,0,0,.608-.262.858.858,0,0,0,.252-.614.838.838,0,0,0-.252-.608.827.827,0,0,0-.608-.252.858.858,0,0,0-.614.252.817.817,0,0,0-.261.608.876.876,0,0,0,.876.878Z" transform="translate(-652.152 -101.33)" fill="#32f8bd"/>
      <path id="Path_22" data-name="Path 22" d="M758.26,122.3a4.066,4.066,0,0,0-2.992,1.246,4.243,4.243,0,0,0,0,5.971,4.21,4.21,0,0,0,7.192-2.982,4.124,4.124,0,0,0-1.228-2.99,4.045,4.045,0,0,0-2.974-1.246Zm-1.749,2.5a2.487,2.487,0,0,1,3.491,0,2.439,2.439,0,0,1,0,3.467,2.478,2.478,0,0,1-3.483,0,2.449,2.449,0,0,1-.008-3.467Z" transform="translate(-666.875 -118.137)" fill="#32f8bd"/>
      <path id="Path_23" data-name="Path 23" d="M813.265,123.286a4.274,4.274,0,0,0-6.021.008,4.081,4.081,0,0,0-1.254,2.99v4.268h1.769v-4.268a2.389,2.389,0,0,1,.731-1.757,2.428,2.428,0,0,1,1.767-.725,2.366,2.366,0,0,1,1.741.723,2.408,2.408,0,0,1,.723,1.757v4.268h1.787v-4.268a4.093,4.093,0,0,0-1.246-3Z" transform="translate(-708.532 -117.937)" fill="#32f8bd"/>
    </g>
    <path id="Path_24" data-name="Path 24" d="M26.39,52.773a26.389,26.389,0,1,1,18.661-7.729h0A26.213,26.213,0,0,1,26.39,52.773ZM11.261,13.367V27.9a12.047,12.047,0,0,0,2.023,6.76c3.3,4.806,9.179,5.179,10.907,5.179.218,0,.384,0,.462-.01H25.6a14.267,14.267,0,0,1-9.728-5.8,10.711,10.711,0,0,1-2.021-6.088V15.792h7.786a10.964,10.964,0,0,1,5.331,1.385,8.622,8.622,0,0,1,4.575,7.093v6.066l2.522,2.546v-8.6a11.3,11.3,0,0,0-.644-3.542,10.639,10.639,0,0,0-4.949-5.924,11.744,11.744,0,0,0-5.629-1.438H11.261Zm7.663,6.972v8.6a11.28,11.28,0,0,0,.644,3.538,10.638,10.638,0,0,0,4.951,5.918,11.728,11.728,0,0,0,5.619,1.438H41.714V24.848a10.276,10.276,0,0,0-.6-3.447,11.906,11.906,0,0,0-3.806-5.44,15.025,15.025,0,0,0-9.444-2.593h-.491l.232.083c4.838,1.575,8.9,4.38,10.334,7.15a8.363,8.363,0,0,1,1.076,4.414V37.409H31.335a10.983,10.983,0,0,1-4.87-1.141,8.691,8.691,0,0,1-4.7-5.52,9.442,9.442,0,0,1-.319-2.435V22.885l-2.522-2.542Z" transform="translate(-277.813 0)" fill="#fff"/>
  </g>
</svg>
