<svg xmlns="http://www.w3.org/2000/svg" width="45.617" height="50.337" viewBox="0 0 45.617 50.337">
  <g id="Sustainability" transform="translate(-3 0)">
    <g id="Go_Green" data-name="Go Green" transform="translate(3 0)">
      <path id="Path_1994" data-name="Path 1994" d="M47.573,34.045a3.567,3.567,0,0,0-5.045,0l-6.106,6.106a3.136,3.136,0,0,0-2.748-1.645H24.743A8.666,8.666,0,0,0,11.934,37.9L8.506,41.326,7.489,40.309a.787.787,0,0,0-1.112,0L3.23,43.455a.787.787,0,0,0,0,1.112L15.815,57.152a.787.787,0,0,0,1.112,0l3.146-3.146a.787.787,0,0,0,0-1.112l-1.017-1.017.882-.882a2.377,2.377,0,0,1,1.667-.691H33.1A7.812,7.812,0,0,0,38.663,48l8.91-8.909a3.567,3.567,0,0,0,0-5.045Zm-31.2,21.438L4.9,44.011l2.034-2.034L18.4,53.45Zm30.09-17.505-8.909,8.91A6.251,6.251,0,0,1,33.1,48.73H21.607a3.907,3.907,0,0,0-2.78,1.151l-.882.882L9.618,42.438l3.428-3.428a7.093,7.093,0,0,1,10.579.617l.121.153a.787.787,0,0,0,.617.3h9.311a1.573,1.573,0,1,1,0,3.146H22.663a.787.787,0,1,0,0,1.573H33.674a3.14,3.14,0,0,0,3.109-2.784l6.857-6.856a2.042,2.042,0,0,1,2.82,0A2,2,0,0,1,46.461,37.978Z" transform="translate(-3 -7.045)" fill="#fff"/>
      <path id="Path_1995" data-name="Path 1995" d="M18.731,16.028c-.011.016-.028.024-.038.04s0,.009,0,.013A17.212,17.212,0,0,0,15,26.742c0,.129,0,.256.009.385a.787.787,0,0,0,.784.731l.055,0a.787.787,0,0,0,.73-.838c-.006-.093-.006-.184-.006-.276a15.623,15.623,0,0,1,2.995-9.2c2.226,1.45,3.528,2.852,3.581,3.9a6.386,6.386,0,0,1-.917,2.806q-.371.75-.7,1.52a.787.787,0,1,0,1.452.6c.212-.51.444-.986.663-1.439a7.5,7.5,0,0,0,1.071-3.575c-.081-1.586-1.49-3.283-4.161-5.048a15.819,15.819,0,0,1,4.228-3.386c1.531,2.986,3.375,4.561,5.388,4.561a3.917,3.917,0,0,0,.438-.024,6.64,6.64,0,0,0,3.8-1.5c.692-.535.979-.757,2.566-.2,1.483.517,3.046-.131,4.462-1.811a15.744,15.744,0,0,1,3.247,3.117,10.881,10.881,0,0,0-2.2,3.484c-.671,1.464-1.125,2.367-1.958,2.445a12.269,12.269,0,0,1-1.627-.007c-2.075-.1-4.656-.223-6.5,3.4a8.366,8.366,0,0,0-.831,2.6.787.787,0,0,0,.669.889.762.762,0,0,0,.11.007.787.787,0,0,0,.779-.677,6.709,6.709,0,0,1,.676-2.112c1.381-2.716,2.989-2.636,5.022-2.541a13.464,13.464,0,0,0,1.847,0c1.784-.168,2.526-1.789,3.244-3.357a10.31,10.31,0,0,1,1.686-2.833,15.6,15.6,0,0,1,2.143,5.449A.787.787,0,1,0,49.3,23.53,17.288,17.288,0,0,0,33.09,9.472V8.6a2.349,2.349,0,0,1,1.321-2.112,4.663,4.663,0,0,0,3.537,1.627,5.635,5.635,0,0,0,1.868-.336,11.864,11.864,0,0,0,2.828-1.44,2.738,2.738,0,0,1,2.834-.509.787.787,0,0,0,.814-1.249c-.17-.215-4.174-5.23-8.029-4.514-3.721.694-4.157,2.95-4.338,4.908A3.917,3.917,0,0,0,32.3,6.258a3.917,3.917,0,0,0-1.622-1.279C30.5,3.022,30.064.765,26.343.071c-3.856-.721-7.86,4.3-8.029,4.515a.787.787,0,0,0,.814,1.248,2.737,2.737,0,0,1,2.834.509,11.864,11.864,0,0,0,2.828,1.44,5.624,5.624,0,0,0,1.868.336A4.664,4.664,0,0,0,30.2,6.492,2.349,2.349,0,0,1,31.517,8.6v.854a17.248,17.248,0,0,0-12.786,6.57Zm19.82-14.41c1.723-.324,3.783,1.172,5.186,2.512a4.818,4.818,0,0,0-1.955.9A10.349,10.349,0,0,1,39.3,6.3a3.211,3.211,0,0,1-3.332-.469l2.079-.873a.787.787,0,1,0-.609-1.45l-1.842.773c.219-1.345.771-2.253,2.96-2.662ZM25.311,6.3a10.349,10.349,0,0,1-2.487-1.27,4.81,4.81,0,0,0-1.957-.9c1.4-1.34,3.454-2.835,5.189-2.512,2.189.408,2.741,1.317,2.96,2.662l-1.842-.773a.786.786,0,1,0-.609,1.45l2.079.873a3.214,3.214,0,0,1-3.332.468ZM37.5,14.272c-2.226-.777-3.049-.33-4.048.443A5.131,5.131,0,0,1,30.439,15.9c-1.864.213-3.363-1.947-4.246-3.653a15.73,15.73,0,0,1,13.921.841c-.682.767-1.644,1.523-2.614,1.184Z" transform="translate(-5.562 0)" fill="#fff"/>
    </g>
  </g>
</svg>
