<svg id="svgexport-6_-_2022-08-16T105833.740" data-name="svgexport-6 - 2022-08-16T105833.740" xmlns="http://www.w3.org/2000/svg" width="40.467" height="40.471" viewBox="0 0 40.467 40.471">
  <g id="Group_69103" data-name="Group 69103" transform="translate(16.6)">
    <g id="Group_69102" data-name="Group 69102">
      <path id="Path_1359" data-name="Path 1359" d="M214.851,0a4.884,4.884,0,0,0-4.822,4.822,4.884,4.884,0,0,0,4.822,4.822,4.822,4.822,0,0,0,0-9.644Z" transform="translate(-210.029)" fill="#aa0c0c"/>
    </g>
  </g>
  <g id="Group_69105" data-name="Group 69105" transform="translate(14.229 9.644)">
    <g id="Group_69104" data-name="Group 69104">
      <path id="Path_1360" data-name="Path 1360" d="M192.486,122a7.071,7.071,0,0,1-5.264,2.371A7.244,7.244,0,0,1,181.879,122a7.06,7.06,0,0,0-1.85,4.743v1.186a1.185,1.185,0,0,0,1.186,1.186H193.15a1.185,1.185,0,0,0,1.186-1.186v-1.186A7.06,7.06,0,0,0,192.486,122Z" transform="translate(-180.029 -122)" fill="#aa0c0c"/>
    </g>
  </g>
  <g id="Group_69107" data-name="Group 69107" transform="translate(0 22.965)">
    <g id="Group_69106" data-name="Group 69106" transform="translate(0)">
      <path id="Path_1361" data-name="Path 1361" d="M11.48,303.959,5.437,291.845a2.371,2.371,0,0,0-3.175-1.067l-1.579.782a1.187,1.187,0,0,0-.534,1.593l7.114,14.228a1.187,1.187,0,0,0,1.587.533l1.559-.772A2.371,2.371,0,0,0,11.48,303.959Z" transform="translate(-0.024 -290.532)" fill="#aa0c0c"/>
    </g>
  </g>
  <g id="Group_69109" data-name="Group 69109" transform="translate(7.034 18.693)">
    <g id="Group_69108" data-name="Group 69108">
      <path id="Path_1362" data-name="Path 1362" d="M121.481,237.366a2.364,2.364,0,0,0-3.13.308l-6.482,7.968a2.866,2.866,0,0,1-1.755.759h-5.525a1.186,1.186,0,1,1,0-2.371h4.743a2.371,2.371,0,1,0,0-4.743h-6.213c-.591,0-.886-.375-1.352-.783a8.25,8.25,0,0,0-7.361-1.8,8.649,8.649,0,0,0-3.64,1.817l-.035-.029L89.016,240l6.74,13.514h13.576a7.143,7.143,0,0,0,5.691-2.846l6.956-9.96A2.39,2.39,0,0,0,121.481,237.366Z" transform="translate(-89.016 -236.479)" fill="#aa0c0c"/>
    </g>
  </g>
</svg>
